# xmcd
#
# Track frame offsets: 
#        150
#        18982
#        39965
#
# Disc length: 811 seconds
#
# Revision: 0
# Processed by: cddbd v1.4PL0 Copyright (c) Steve Scherf et al.
# Submitted via: ExactAudioCopy v0.90b4
#
DISCID=16032903
DTITLE=Ruys,Matty J - I Love Everything About You
DYEAR=1997
DGENRE=Blues
TTITLE0=I Love Everything About You (Radio)
TTITLE1=Do It All 4 You
TTITLE2=Do An Instrumental 4 U
EXTD=
EXTT0=
EXTT1=
EXTT2=
PLAYORDER=
